<?xml version="1.0" encoding="utf-8"?>
<!-- Generator: Adobe Illustrator 21.0.2, SVG Export Plug-In . SVG Version: 6.00 Build 0)  -->
<svg version="1.1" id="Livello_1" xmlns="http://www.w3.org/2000/svg" xmlns:xlink="http://www.w3.org/1999/xlink" x="0px" y="0px"
	 viewBox="0 0 3000 1500" style="enable-background:new 0 0 3000 1500;" xml:space="preserve">
<style type="text/css">
	.st0{display:none;fill:none;}
	.st1{fill:#66CCFF;}
</style>
<rect x="3" y="150" class="st0" width="3000" height="1200"/>
<g id="VAWT">
	<path class="st1" d="M2092.7,445.1l42.1,16.9c0,0-9.2,29.8-11.7,44.7L2092.7,445.1z"/>
	<path class="st1" d="M2092.7,838.7l47.3-75.7c0,0-21.4-196.4,98.1-421.4l-60.4,30.4C2177.6,372.1,2099.9,510.4,2092.7,838.7z"/>
	<path class="st1" d="M2303.1,517.9l-16.4,459h19.2h19.2l-16.4-459C2308.5,514,2303.3,514,2303.1,517.9z"/>
	<path class="st1" d="M2288.6,737.3l2.5-66.1c0,0-56.1-58.9-113.2-154.1c0,0-12.5,35-14.6,56.6
		C2163.2,573.8,2198,645.2,2288.6,737.3z"/>
	<path class="st1" d="M2321.8,701.8l3.3,72.4c0,0,31,31.4,51,45.5c0,0,34.5,6.5,84.9,9.1C2461,828.8,2369.7,748.2,2321.8,701.8z"/>
	<path class="st1" d="M2446.1,795.6c0,0,81.4-312.2-61.4-453.9c0,0-13.8,37.6-20,65c0,0,231.7,172,115.2,422.1L2446.1,795.6z"/>
</g>
<g id="EoliTO">
	<path id="E" class="st1" d="M297.4,872.8h206.9L493,937.1H221.1l78.5-445h271.2l-11.3,64.3H353.2l-22.1,125.4h201.8l-11.5,64.9
		H319.6L297.4,872.8z"/>
	<path id="o" class="st1" d="M636.2,650.5c35.3-30.4,80.9-49.6,126.7-49.6c46.4,0,84.6,19.2,109.7,49.6
		c24.1,30.4,36,72.1,27.8,118.5c-8.2,46.4-34.7,88-69.6,118.5c-35.9,30.9-80.9,49.6-127.2,49.6c-45.9,0-84.7-18.7-109.2-49.6
		c-24.1-30.4-36-72.1-27.8-118.5C574.8,722.6,601.4,681,636.2,650.5z M833,684.2c-18.1-22-46.2-35.6-78.5-35.6
		c-32.3,0-64.7,13.6-90.1,35.6c-25.3,21.5-44.2,51.5-50.1,84.8c-5.9,33.2,2.4,63.2,20.2,84.8c17.7,22,45.2,35.6,77.5,35.6
		s65.1-13.6,91-35.6c24.9-21.5,43.6-51,49.6-84.8C858.7,735.3,850.3,705.8,833,684.2z"/>
	<path id="L" class="st1" d="M969.2,960.4l1809.7,4.7l-266.3,50.1H900.3l72-414.4l59.2,0.2L969.2,960.4z"/>
	<polygon id="i" class="st1" points="1086.9,937.1 1151.6,937.1 1210.9,600.9 1146.9,600.9 	"/>
	<path id="T" class="st1" d="M1284,937.1l67.5-382.8h-135l11.5-65h333.7l-11.5,65h-134.4l-67.5,382.8H1284z"/>
	<path id="O" class="st1" d="M1621.2,552.4c47.4-40.9,108.5-66.6,170.1-66.6c62.2,0,113.6,25.8,147.3,66.6
		c32.4,40.9,48.3,96.8,37.3,159c-11,62.2-46.6,118.2-93.4,159c-48.2,41.5-108.5,66.6-170.8,66.6c-61.6,0-113.7-25.1-146.6-66.6
		c-32.4-40.9-48.3-96.8-37.3-159C1538.8,649.2,1574.4,593.3,1621.2,552.4z M1885.4,597.7c-24.3-29.5-62-47.8-105.3-47.8
		c-43.4,0-86.8,18.2-120.9,47.8c-34,28.9-59.3,69.1-67.2,113.8c-7.9,44.6,3.3,84.8,27.1,113.8c23.7,29.5,60.7,47.8,104.1,47.8
		s87.4-18.2,122.2-47.8c33.4-28.9,58.6-68.5,66.6-113.8C1919.8,666.2,1908.6,626.6,1885.4,597.7z"/>
</g>
<g id="EST">
	<path class="st1" d="M896.5,1098.2H926l-1.6,9.2h-38.7l11.2-63.3h38.6l-1.6,9.2h-29.4l-3.1,17.8h28.7l-1.6,9.2h-28.7L896.5,1098.2z
		"/>
	<path class="st1" d="M948.6,1107.3l11.2-63.5l7.1,0.1l23,44.7l7.9-44.7h9.1l-11.2,63.4h-7.2l-22.8-44.3l-7.8,44.3H948.6z"/>
	<path class="st1" d="M1079.5,1066.6c-0.7-10.2-9.9-14-17.9-14c-12.4,0-23.7,9.7-26.1,23c-2.4,13.4,5.5,23.3,17.9,23.3
		c7.8,0,16.8-3.6,22.2-12.9h-23.5l1.6-9.2h34.2c-1.4,5.3-2.5,8.9-3.7,11l0-0.1c-6.5,12.1-20.9,19.9-32.4,19.9
		c-17.8,0-28.8-13.4-25.5-32.1c3.3-18.8,19.4-32.2,36.8-32.2c12.1,0,25.7,6.3,26.1,23.1H1079.5z"/>
	<path class="st1" d="M1146.1,1053h-11.8l-8,45.1h11.8l-1.6,9.2h-32.7l1.6-9.2h11.8l8-45.1h-11.8l1.6-9.1h32.7L1146.1,1053z"/>
	<path class="st1" d="M1161.2,1107.3l11.2-63.5l7.1,0.1l23,44.7l7.9-44.7h9.1l-11.2,63.4h-7.2l-22.8-44.3l-7.8,44.3H1161.2z"/>
	<path class="st1" d="M1245.1,1098.2h29.4l-1.6,9.2h-38.7l11.2-63.3h38.6l-1.6,9.2H1253l-3.1,17.8h28.7l-1.6,9.2h-28.7
		L1245.1,1098.2z"/>
	<path class="st1" d="M1307.6,1098.2h29.4l-1.6,9.2h-38.7l11.2-63.3h38.6l-1.6,9.2h-29.4l-3.1,17.8h28.7l-1.6,9.2h-28.7
		L1307.6,1098.2z"/>
	<path class="st1" d="M1377.8,1075.2h10.7c7.7,0,12.5-5.5,13.5-11.1c1-5.4-1.9-11-9.6-11h-14l-9.6,54.2h-9.1l11.2-63.4h23.1
		c13.8,0,18.9,10.1,17.1,20.2c-1.6,9-8.6,17.5-19.8,19.4l15.8,23.8h-11.9l-18.2-27.8L1377.8,1075.2z"/>
	<path class="st1" d="M1467.8,1053H1456l-8,45.1h11.8l-1.6,9.2h-32.7l1.6-9.2h11.8l8-45.1h-11.8l1.6-9.1h32.7L1467.8,1053z"/>
	<path class="st1" d="M1482.8,1107.3l11.2-63.5l7.1,0.1l23,44.7l7.9-44.7h9.1l-11.2,63.4h-7.3l-22.8-44.3l-7.8,44.3H1482.8z"/>
	<path class="st1" d="M1613.8,1066.6c-0.7-10.2-9.9-14-17.9-14c-12.4,0-23.7,9.7-26.1,23c-2.4,13.4,5.5,23.3,17.9,23.3
		c7.8,0,16.8-3.6,22.2-12.9h-23.5l1.6-9.2h34.2c-1.4,5.3-2.5,8.9-3.7,11l0-0.1c-6.5,12.1-20.9,19.9-32.4,19.9
		c-17.8,0-28.8-13.4-25.5-32.1c3.3-18.8,19.4-32.2,36.8-32.2c12.1,0,25.7,6.3,26.1,23.1H1613.8z"/>
	<path class="st1" d="M1736.9,1060.3c-0.3-5.7-6-8.2-11.5-8.1c-4.3,0.1-9.2,1.5-12.4,4.8c-1.6,1.6-2.4,3.7-2.6,5.9
		c-0.7,6.5,6.3,7.3,13,8c8.5,1.1,18.9,3.4,19.5,13.5c0,1.4-0.1,2.9-0.3,4.2c-2.2,12.2-15.5,19.3-27,19.3c-9.8,0-20.6-5.8-19.8-17.1
		l0.2-1.7l9.3-0.2l-0.1,1.4l0.1-0.4c-0.4,5.9,6.2,9,12.1,9c6.8,0,14.9-3.8,16-10.3c0.1-0.6,0.1-1.4,0.1-2.2
		c-0.2-4.8-6.6-5.6-12.9-6.3c-9.7-1-20.9-3.2-19.6-16.4l0,0.1c0.4-4.3,2.2-8.5,5.6-12c5.2-5.5,13.4-8.4,20.7-8.4
		c9.8,0,19,5.1,18.6,16.7L1736.9,1060.3z"/>
	<path class="st1" d="M1775.5,1107.6l9.6-54.4h-19.2l1.6-9.2h47.5l-1.6,9.2h-19.1l-9.6,54.4H1775.5z"/>
	<path class="st1" d="M1831.7,1088.3l7.8-44.3h9.2l-7.8,44.4c-1.2,7,5.7,10.4,12.4,10.4c6.6,0,14.8-3.5,16-10.5l7.8-44.3h9.2
		l-7.8,44.4c-2.3,12.9-16,19.6-26.8,19.6C1840.5,1107.9,1829.4,1101.2,1831.7,1088.3z"/>
	<path class="st1" d="M1935.6,1044c20.7,0,28.4,15.9,25.6,31.7c-2.8,15.9-16,31.6-36.7,31.6h-22.7l11.2-63.3H1935.6z M1926,1098.2
		c14.7,0,24.1-11.2,26.1-22.5c2-11.2-3.5-22.6-18.1-22.6h-13.6l-7.9,45H1926z"/>
	<path class="st1" d="M1991.2,1098.2h29.4l-1.6,9.2h-38.7l11.2-63.3h38.6l-1.6,9.2h-29.4l-3.1,17.8h28.7l-1.6,9.2h-28.7
		L1991.2,1098.2z"/>
	<path class="st1" d="M2043.2,1107.3l11.2-63.5l7.1,0.1l23,44.7l7.9-44.7h9.1l-11.2,63.4h-7.3l-22.8-44.3l-7.8,44.3H2043.2z"/>
	<path class="st1" d="M2125,1107.6l9.7-55.2h-19.2l1.5-8.5h47.5l-1.5,8.5h-19.1l-9.7,55.2H2125z"/>
	<path class="st1" d="M2245.5,1107.6l9.6-54.4h-19.2l1.6-9.2h47.5l-1.6,9.2h-19.1l-9.6,54.4H2245.5z"/>
	<path class="st1" d="M2308.6,1098.2h29.4l-1.6,9.2h-38.7l11.2-63.3h38.6l-1.6,9.2h-29.4l-3.1,17.8h28.7l-1.6,9.2h-28.7
		L2308.6,1098.2z"/>
	<path class="st1" d="M2397.8,1088.7h-22.7c-3.5,5.8-8,13.4-10.9,18.7h-9.9l36.8-64.2h6.7l14.1,64.2h-9.8L2397.8,1088.7z
		 M2380.1,1080h15.8l-3.8-22.4L2380.1,1080z"/>
	<path class="st1" d="M2444.4,1107.3h-9.2l11.2-63.4h7.4l15.5,30.8l26.4-30.8h7.2l-11.2,63.4h-9.1l7.9-44.7l-20.9,24.6h-5.2
		l-12.2-24.6L2444.4,1107.3z"/>
</g>
</svg>
